<?xml version="1.0" encoding="UTF-8"?>
<svg id="Main" xmlns="http://www.w3.org/2000/svg" xmlns:xlink="http://www.w3.org/1999/xlink" viewBox="0 0 518.4 518.4">
  <defs>
    <style>
      .cls-1 {
        stroke: url(#_未命名的渐变_23-2);
      }

      .cls-1, .cls-2 {
        stroke-linecap: round;
        stroke-linejoin: round;
        stroke-width: 26px;
      }

      .cls-1, .cls-2, .cls-3, .cls-4 {
        fill: none;
      }

      .cls-5 {
        fill: url(#_未命名的渐变_29);
      }

      .cls-6 {
        fill: #8c5400;
      }

      .cls-2 {
        stroke: url(#_未命名的渐变_23);
      }

      .cls-3 {
        stroke: url(#_未命名的渐变_24);
      }

      .cls-3, .cls-4 {
        stroke-width: 35px;
      }

      .cls-4 {
        stroke: url(#_未命名的渐变_6);
      }
    </style>
    <radialGradient id="_未命名的渐变_29" data-name="未命名的渐变 29" cx="234.7" cy="255.7" fx="234.7" fy="255.7" r="157" gradientUnits="userSpaceOnUse">
      <stop offset=".72" stop-color="#000" stop-opacity="0"/>
      <stop offset="1" stop-color="#000" stop-opacity=".2"/>
    </radialGradient>
    <linearGradient id="_未命名的渐变_23" data-name="未命名的渐变 23" x1="271.45" y1="184.54" x2="271.45" y2="307.58" gradientTransform="translate(0 519.4) scale(1 -1)" gradientUnits="userSpaceOnUse">
      <stop offset="0" stop-color="#ccbd9c"/>
      <stop offset="1" stop-color="#e5e3d2"/>
    </linearGradient>
    <linearGradient id="_未命名的渐变_23-2" data-name="未命名的渐变 23" x1="246.95" y1="198.88" x2="246.95" y2="341.76" xlink:href="#_未命名的渐变_23"/>
    <linearGradient id="_未命名的渐变_6" data-name="未命名的渐变 6" x1="234.2" y1="441.7" x2="234.2" y2="80.65" gradientTransform="translate(0 519.4) scale(1 -1)" gradientUnits="userSpaceOnUse">
      <stop offset="0" stop-color="#b8c2cc"/>
      <stop offset="1" stop-color="#8a9299"/>
    </linearGradient>
    <linearGradient id="_未命名的渐变_24" data-name="未命名的渐变 24" x1="423.44" y1="421.19" x2="423.44" y2="100.11" gradientTransform="translate(0 519.4) scale(1 -1)" gradientUnits="userSpaceOnUse">
      <stop offset="0" stop-color="#b8c2cc"/>
      <stop offset="1" stop-color="#8a9299"/>
    </linearGradient>
  </defs>
  <g id="Coffee">
    <circle class="cls-6" cx="234.7" cy="255.7" r="157"/>
    <circle class="cls-5" cx="234.7" cy="255.7" r="157"/>
  </g>
  <g id="Cup">
    <g id="SqrtX">
      <path class="cls-2" d="m237.7,240.2h0c2.25-8.14,13.39-9.13,17.05-1.52l34.15,71.16c5.92,12.33,23.51,12.25,29.31-.15h0m-98.5,4h0c2.1,5.14,8.82,6.37,12.61,2.31l74.86-80.18c4.45-4.76,12.12-4.35,16.03.86h0"/>
      <path class="cls-1" d="m136.7,269.5h0c6.27,0,11.65,4.47,12.79,10.64l7.2,38.75c.39,2.1,3.36,2.21,3.9.14l31.4-120.37c2.3-8.81,10.25-14.95,19.35-14.95h145.85"/>
    </g>
    <circle class="cls-4" cx="234.2" cy="255.2" r="160"/>
    <path class="cls-3" d="m395.44,205.2h6.5c27.34,0,49.5,22.16,49.5,49.5v8c0,27.89-22.61,50.5-50.5,50.5h-5.5v-108Z"/>
  </g>
</svg>